<svg width="51" height="51" viewBox="0 0 51 51" fill="none" xmlns="http://www.w3.org/2000/svg">
<g clip-path="url(#clip0_1211_6618)">
<path d="M27.7502 44.6943V48.861H23.5835V44.6943H6.91683C6.3643 44.6943 5.83439 44.4748 5.44369 44.0841C5.05299 43.6934 4.8335 43.1635 4.8335 42.611V13.4443H46.5002V42.611C46.5002 43.1635 46.2807 43.6934 45.89 44.0841C45.4993 44.4748 44.9694 44.6943 44.4168 44.6943H27.7502ZM9.00016 40.5277H42.3335V17.611H9.00016V40.5277ZM27.7502 21.7777H38.1668V25.9443H27.7502V21.7777ZM27.7502 30.111H38.1668V34.2777H27.7502V30.111ZM19.4168 21.7777V28.0277H25.6668C25.6668 29.2638 25.3003 30.4722 24.6135 31.5C23.9268 32.5278 22.9506 33.3289 21.8086 33.8019C20.6666 34.275 19.4099 34.3987 18.1975 34.1576C16.9851 33.9164 15.8715 33.3212 14.9974 32.4471C14.1233 31.573 13.5281 30.4594 13.2869 29.247C13.0458 28.0346 13.1695 26.7779 13.6426 25.6359C14.1156 24.4939 14.9167 23.5177 15.9445 22.831C16.9723 22.1442 18.1807 21.7777 19.4168 21.7777V21.7777ZM4.8335 7.19434H46.5002V11.361H4.8335V7.19434Z" fill="#14171B"/>
</g>
<defs>
<clipPath id="clip0_1211_6618">
<rect width="50" height="50" fill="white" transform="translate(0.666748 0.944336)"/>
</clipPath>
</defs>
</svg>
