<svg width="377" height="377" viewBox="0 0 377 377" fill="none" xmlns="http://www.w3.org/2000/svg">
<g clip-path="url(#clip0_594_3091)">
<path d="M324.55 304.371C171.941 377 77.2301 316.233 16.6027 279.325C12.8511 276.999 6.4747 279.869 12.0071 286.223C32.2051 310.714 98.3983 369.743 184.8 369.743C271.26 369.743 322.697 322.566 329.131 314.336C335.522 306.176 331.007 301.675 324.548 304.371H324.55ZM367.41 280.701C363.311 275.364 342.49 274.37 329.386 275.979C316.262 277.543 296.563 285.563 298.276 290.38C299.154 292.184 300.948 291.374 309.964 290.564C319.004 289.662 344.33 286.465 349.607 293.364C354.909 300.31 341.53 333.4 339.086 338.737C336.725 344.074 339.988 345.45 344.423 341.895C348.797 338.343 356.715 329.141 362.028 316.12C367.305 303.028 370.523 284.764 367.408 280.701H367.41Z" fill="#FF9900"/>
<path fill-rule="evenodd" clip-rule="evenodd" d="M221.937 156.172C221.937 175.229 222.419 191.121 212.787 208.045C205.012 221.805 192.698 230.267 178.938 230.267C160.156 230.267 149.217 215.957 149.217 194.837C149.217 153.144 186.573 145.577 221.937 145.577V156.172ZM271.265 275.399C268.031 278.288 263.353 278.496 259.707 276.568C243.471 263.085 240.581 256.824 231.638 243.958C204.806 271.34 185.818 279.527 151.007 279.527C109.865 279.527 77.8047 254.14 77.8047 203.298C77.8047 163.603 99.3398 136.564 129.953 123.356C156.51 111.659 193.592 109.595 221.937 106.363V100.033C221.937 88.4054 222.831 74.6462 216.021 64.6023C210.034 55.5895 198.614 51.8741 188.569 51.8741C169.925 51.8741 153.276 61.4366 149.217 81.2503C148.39 85.6545 145.158 89.989 140.755 90.195L93.2838 85.1049C89.2944 84.2086 84.8917 80.9762 85.9924 74.8521C96.931 17.3383 148.872 0 195.379 0C219.183 0 250.28 6.33 269.062 24.3557C292.867 46.5767 290.596 76.2283 290.596 108.495V184.723C290.596 207.633 300.09 217.677 309.033 230.061C312.198 234.464 312.886 239.763 308.896 243.064C298.92 251.387 281.17 266.868 271.401 275.537L271.264 275.399" fill="black"/>
<path d="M324.55 304.371C171.941 377 77.2301 316.233 16.6027 279.325C12.8511 276.999 6.4747 279.869 12.0071 286.223C32.2051 310.714 98.3983 369.743 184.8 369.743C271.26 369.743 322.697 322.566 329.131 314.336C335.522 306.176 331.007 301.675 324.548 304.371H324.55ZM367.41 280.701C363.311 275.364 342.49 274.37 329.386 275.979C316.262 277.543 296.563 285.563 298.276 290.38C299.154 292.184 300.948 291.374 309.964 290.564C319.004 289.662 344.33 286.465 349.607 293.364C354.909 300.31 341.53 333.4 339.086 338.737C336.725 344.074 339.988 345.45 344.423 341.895C348.797 338.343 356.715 329.141 362.028 316.12C367.305 303.028 370.523 284.764 367.408 280.701H367.41Z" fill="#FF9900"/>
<path fill-rule="evenodd" clip-rule="evenodd" d="M221.937 156.172C221.937 175.229 222.419 191.121 212.787 208.045C205.012 221.805 192.698 230.267 178.938 230.267C160.156 230.267 149.217 215.957 149.217 194.837C149.217 153.144 186.573 145.577 221.937 145.577V156.172ZM271.265 275.399C268.031 278.288 263.353 278.496 259.707 276.568C243.471 263.085 240.581 256.824 231.638 243.958C204.806 271.34 185.818 279.527 151.007 279.527C109.865 279.527 77.8047 254.14 77.8047 203.298C77.8047 163.603 99.3398 136.564 129.953 123.356C156.51 111.659 193.592 109.595 221.937 106.363V100.033C221.937 88.4054 222.831 74.6462 216.021 64.6023C210.034 55.5895 198.614 51.8741 188.569 51.8741C169.925 51.8741 153.276 61.4366 149.217 81.2503C148.39 85.6545 145.158 89.989 140.755 90.195L93.2838 85.1049C89.2944 84.2086 84.8917 80.9762 85.9924 74.8521C96.931 17.3383 148.872 0 195.379 0C219.183 0 250.28 6.33 269.062 24.3557C292.867 46.5767 290.596 76.2283 290.596 108.495V184.723C290.596 207.633 300.09 217.677 309.033 230.061C312.198 234.464 312.886 239.763 308.896 243.064C298.92 251.387 281.17 266.868 271.401 275.537L271.264 275.399" fill="black"/>
</g>
<defs>
<clipPath id="clip0_594_3091">
<rect width="377" height="377" fill="white"/>
</clipPath>
</defs>
</svg>
