<svg width="146" height="35" viewBox="0 0 146 35" fill="none" xmlns="http://www.w3.org/2000/svg">
<path fill-rule="evenodd" clip-rule="evenodd" d="M37.4734 22.2901H40.8521C42.1705 22.2901 42.6718 22.745 42.6718 23.8593C42.6718 24.9322 42.1703 25.3866 40.8521 25.3866H37.4731L37.4734 22.2901ZM32.2387 33.5601H37.4737V28.9773H43.0809C46.7933 28.9773 48.1297 26.7904 48.1297 23.963C48.1297 20.6809 46.7553 18.8236 43.0428 18.8236H32.2387V33.5601ZM63.9456 22.4141H55.0913V24.3956H63.3155V27.9876H55.0913V29.9688H63.9456V33.5601H49.8563V18.8236H63.9454L63.9456 22.4141ZM71.3718 22.2901H74.7505C76.0686 22.2901 76.5702 22.745 76.5702 23.8593C76.5702 24.9322 76.0686 25.3866 74.7505 25.3866H71.3718V22.2901ZM66.1368 33.5601H71.3718V28.9773H76.978C80.6914 28.9773 82.0283 26.7904 82.0283 23.963C82.0283 20.6809 80.6539 18.8236 76.9407 18.8236H66.1368V33.5601ZM87.0954 27.3062C84.534 26.8721 83.4765 25.221 83.4765 23.1576C83.4765 19.3387 86.8365 18.3076 91.1423 18.3076C97.0452 18.3076 99.4776 20.02 99.6635 23.1371H93.5742C93.5742 22.5384 93.2585 22.1661 92.7767 21.9599C92.3124 21.7335 91.7187 21.6511 91.1426 21.6511C89.5831 21.6511 89.0455 22.0839 89.0455 22.7037C89.0455 23.1158 89.2118 23.3851 89.7317 23.4672L95.9875 24.4988C98.624 24.9322 100.258 26.2944 100.258 28.7912C100.258 32.3837 97.6216 34.0761 91.7365 34.0761C87.7083 34.0761 83.3084 33.4571 83.2902 29.1226H89.6018C89.6196 29.6174 89.7874 29.9475 90.1592 30.1747C90.5479 30.3814 91.1238 30.4849 91.9404 30.4849C93.5734 30.4849 94.0197 29.9891 94.0197 29.2872C94.0197 28.8538 93.7781 28.4207 93.0739 28.2975L87.0954 27.3062ZM107.199 33.5601H101.965V18.8236H107.2L107.199 33.5601ZM126.6 27.8223C126.266 29.7624 125.671 31.3311 124.372 32.404C123.092 33.4774 121.086 34.0761 117.894 34.0761C114.719 34.0761 108.835 33.8278 108.835 26.1922C108.835 18.5551 114.719 18.3073 117.894 18.3073C121.049 18.3073 125.913 18.761 126.6 24.6028H120.697C120.548 23.5491 119.916 22.0221 117.894 22.0221C115.758 22.0221 114.403 23.1984 114.403 26.192C114.403 29.1848 115.721 30.3604 117.633 30.3604C119.286 30.3604 120.27 29.5968 120.697 27.822H126.6V27.8223ZM133.45 26.1925C133.45 23.1987 134.806 22.0226 136.941 22.0226C139.075 22.0226 140.431 23.1989 140.431 26.1925C140.431 29.1853 139.075 30.3609 136.941 30.3609C134.806 30.3606 133.45 29.185 133.45 26.1925ZM127.88 26.1925C127.88 33.8278 133.765 34.0764 136.941 34.0764C140.115 34.0764 146 33.8281 146 26.1925C146 18.5553 140.115 18.3076 136.941 18.3076C133.765 18.3076 127.88 18.5551 127.88 26.1925H127.88ZM24.3285 18.9697C24.6665 11.8996 18.5693 3.93759 10.2572 2.95343L10.2714 2.85682C18.4659 2.85682 24.7479 10.443 24.7479 16.4278C24.74 17.6736 24.6414 18.4455 24.4662 19.006L24.3285 18.9697ZM23.8319 19.8684C23.2867 20.5346 22.6011 21.2053 21.7977 21.842C20.3196 13.3422 14.0736 5.9097 9.65796 3.7403L9.56337 3.80623C14.0044 7.45097 19.3009 14.5297 21.361 22.1755C20.3104 22.9473 19.1754 23.5973 17.978 24.1129C13.7873 19.3338 9.88035 10.1171 8.62131 4.26851L8.49326 4.30706C8.52166 9.98426 12.5523 19.6219 17.4675 24.3246C16.3402 24.7707 15.1683 25.0945 13.9719 25.2905C9.26009 23.4239 5.90595 17.4454 5.90595 11.3211C5.90595 7.32316 7.12492 4.84998 7.36076 4.34383L7.26034 4.30401C6.97506 4.73561 5.18933 7.20753 5.18933 11.5238C5.18933 18.4463 8.60331 23.7375 13.1358 25.4038C11.515 25.5821 9.87624 25.5052 8.27923 25.1759L8.2455 25.2814C8.73035 25.4599 10.3753 26.1504 12.8848 26.1504C18.5607 26.1504 22.3977 22.6238 23.9423 19.9432L23.8319 19.8684Z" fill="#C1C1C1"/>
<path fill-rule="evenodd" clip-rule="evenodd" d="M12.3175 0.35878C8.0147 0.35878 2.96942 3.46415 2.96942 6.30275C2.96942 7.40076 3.97361 8.32837 6.05273 8.32837C10.8784 8.32837 15.3622 5.01278 15.3622 2.4346C15.362 1.07794 14.0593 0.35878 12.3175 0.35878ZM14.0352 2.35447C14.0352 4.52767 9.86204 7.1842 6.37351 7.1842C4.83224 7.1842 3.99947 6.57763 3.99947 5.57674C3.99947 3.37235 8.2201 0.760961 11.4923 0.760961C13.6257 0.760961 14.0352 1.84655 14.0352 2.35447V2.35447Z" fill="#C1C1C1"/>
<path fill-rule="evenodd" clip-rule="evenodd" d="M1.2552 7.61706C1.13424 7.82627 0.649902 8.77466 0.649902 9.74639C0.649902 11.5486 2.47062 13.2217 5.82019 13.2217C12.2635 13.2217 19.7076 8.47899 19.7076 4.07654C19.7076 2.10038 17.837 1.02595 16.5379 0.80381L16.5138 0.880899C16.9177 1.0087 18.3976 1.69667 18.3976 3.45704C18.3976 6.96485 11.8248 11.7444 5.27803 11.7444C2.77163 11.7444 1.19257 10.5071 1.19257 8.70493C1.19257 8.13488 1.31125 7.75932 1.34269 7.65053L1.2552 7.61706Z" fill="#C1C1C1"/>
<path fill-rule="evenodd" clip-rule="evenodd" d="M22.3642 4.4057C22.5409 4.53985 23.6022 5.42434 23.6022 7.09697C23.6022 12.8 14.6664 18.408 6.76657 18.408C2.05552 18.408 -0.0920723 16.0819 0.00302104 14.0165H0.0874639C0.272072 15.0891 1.80168 17.0085 5.92493 17.0085C13.8347 17.0085 22.6662 11.2058 22.6662 6.12169C22.6662 5.24962 22.4293 4.7062 22.2954 4.46453L22.3642 4.4057Z" fill="#C1C1C1"/>
<path fill-rule="evenodd" clip-rule="evenodd" d="M25.3506 9.7299C25.3879 9.85137 25.5804 10.3973 25.5804 11.2524C25.5804 17.5965 16.5374 23.0278 8.6725 23.0278C4.62457 23.0278 2.51045 21.0615 2.06415 20.263L2.13642 20.2097C3.25649 21.1893 5.46266 21.9336 8.03728 21.9336C14.9834 21.9336 25.3481 16.6489 25.2555 9.75298L25.3506 9.7299Z" fill="#C1C1C1"/>
</svg>
