<svg width="281" height="421" viewBox="0 0 281 421" fill="none" xmlns="http://www.w3.org/2000/svg">
<g clip-path="url(#clip0_594_3097)">
<path d="M70.194 421C108.926 421 140.361 389.565 140.361 350.833V280.667H70.194C31.462 280.667 0.0273438 312.101 0.0273438 350.833C0.0273438 389.565 31.462 421 70.194 421Z" fill="#0ACF83"/>
<path d="M0.0273438 210.5C0.0273438 171.768 31.462 140.333 70.194 140.333H140.361V280.667H70.194C31.462 280.667 0.0273438 249.232 0.0273438 210.5Z" fill="#A259FF"/>
<path d="M0.0273438 70.1667C0.0273438 31.4347 31.462 0 70.194 0H140.361V140.333H70.194C31.462 140.333 0.0273438 108.899 0.0273438 70.1667Z" fill="#F24E1E"/>
<path d="M140.361 0H210.528C249.26 0 280.695 31.4347 280.695 70.1667C280.695 108.899 249.26 140.333 210.528 140.333H140.361V0Z" fill="#FF7262"/>
<path d="M280.695 210.5C280.695 249.232 249.26 280.667 210.528 280.667C171.796 280.667 140.361 249.232 140.361 210.5C140.361 171.768 171.796 140.333 210.528 140.333C249.26 140.333 280.695 171.768 280.695 210.5Z" fill="#1ABCFE"/>
</g>
<defs>
<clipPath id="clip0_594_3097">
<rect width="280.723" height="421" fill="white"/>
</clipPath>
</defs>
</svg>
