<svg width="425" height="467" viewBox="0 0 425 467" fill="none" xmlns="http://www.w3.org/2000/svg">
<path d="M305.881 0.00601006L284.125 205.922L247.013 32.316L130.658 56.9212L167.752 230.515L0 265.975L29.6295 404.644L324.627 466.993L392.089 316.309L424.195 12.3807L305.869 0L305.881 0.0120201V0.00601006ZM212.666 298.723C206.583 304.265 198.542 303.754 190.008 300.929C181.491 298.116 177.705 287.869 180.932 275.483C183.336 266.287 194.653 264.905 200.315 264.809C202.466 264.773 204.582 265.205 206.535 266.083C210.538 267.886 217.317 271.732 218.694 277.598C220.677 286.06 218.766 293.164 212.684 298.705H212.672V298.717L212.666 298.723ZM298.068 308.279C293.651 315.912 282.052 316.922 270.638 311.369C262.946 307.618 263.006 298.074 263.847 292.257C264.294 289.083 265.58 286.087 267.573 283.578C270.32 280.116 274.906 275.603 280.206 275.464C288.825 275.236 296.241 279.083 300.43 286.042C304.637 292.978 302.534 300.629 298.104 308.279H298.068Z" fill="#00CCBC"/>
</svg>
