<svg width="49" height="49" viewBox="0 0 49 49" fill="none" xmlns="http://www.w3.org/2000/svg">
<g clip-path="url(#clip0_1211_5034)">
<path d="M24.4999 4.94385C25.0303 4.94385 25.539 5.15456 25.9141 5.52963C26.2892 5.90471 26.4999 6.41341 26.4999 6.94385V12.9438C26.4999 13.4743 26.2892 13.983 25.9141 14.3581C25.539 14.7331 25.0303 14.9438 24.4999 14.9438C23.9694 14.9438 23.4607 14.7331 23.0857 14.3581C22.7106 13.983 22.4999 13.4743 22.4999 12.9438V6.94385C22.4999 6.41341 22.7106 5.90471 23.0857 5.52963C23.4607 5.15456 23.9694 4.94385 24.4999 4.94385V4.94385ZM24.4999 34.9438C25.0303 34.9438 25.539 35.1546 25.9141 35.5296C26.2892 35.9047 26.4999 36.4134 26.4999 36.9438V42.9438C26.4999 43.4743 26.2892 43.983 25.9141 44.3581C25.539 44.7331 25.0303 44.9438 24.4999 44.9438C23.9694 44.9438 23.4607 44.7331 23.0857 44.3581C22.7106 43.983 22.4999 43.4743 22.4999 42.9438V36.9438C22.4999 36.4134 22.7106 35.9047 23.0857 35.5296C23.4607 35.1546 23.9694 34.9438 24.4999 34.9438V34.9438ZM41.8199 14.9438C42.0851 15.4032 42.157 15.9491 42.0197 16.4614C41.8824 16.9738 41.5472 17.4106 41.0879 17.6758L35.8919 20.6758C35.6643 20.8092 35.4127 20.8963 35.1513 20.932C34.89 20.9678 34.6242 20.9515 34.3692 20.884C34.1142 20.8166 33.875 20.6994 33.6655 20.5392C33.456 20.379 33.2802 20.1789 33.1484 19.9505C33.0165 19.7221 32.9311 19.4698 32.8971 19.2083C32.8631 18.9467 32.8812 18.681 32.9503 18.4265C33.0194 18.1719 33.1381 17.9336 33.2997 17.7251C33.4613 17.5166 33.6626 17.3422 33.8919 17.2118L39.0879 14.2118C39.5472 13.9466 40.0931 13.8748 40.6055 14.012C41.1178 14.1493 41.5547 14.4845 41.8199 14.9438V14.9438ZM15.8399 29.9438C16.1051 30.4032 16.177 30.9491 16.0397 31.4614C15.9024 31.9738 15.5672 32.4106 15.1079 32.6758L9.91188 35.6758C9.68434 35.8092 9.43266 35.8963 9.17133 35.932C8.91 35.9678 8.64419 35.9515 8.38919 35.884C8.13419 35.8166 7.89504 35.6994 7.68552 35.5392C7.476 35.379 7.30024 35.1789 7.16835 34.9505C7.03647 34.7221 6.95107 34.4698 6.91707 34.2083C6.88308 33.9467 6.90115 33.681 6.97026 33.4265C7.03937 33.1719 7.15814 32.9336 7.31975 32.7251C7.48135 32.5166 7.68259 32.3422 7.91188 32.2118L13.1079 29.2118C13.5672 28.9466 14.1131 28.8748 14.6255 29.012C15.1378 29.1493 15.5747 29.4845 15.8399 29.9438ZM41.8199 34.9438C41.5547 35.4032 41.1178 35.7384 40.6055 35.8756C40.0931 36.0129 39.5472 35.9411 39.0879 35.6758L33.8919 32.6758C33.4363 32.4087 33.1048 31.9723 32.9698 31.4617C32.8348 30.9511 32.9073 30.4078 33.1713 29.9505C33.4354 29.4931 33.8697 29.1587 34.3794 29.0203C34.889 28.882 35.4328 28.9508 35.8919 29.2118L41.0879 32.2118C41.5472 32.4771 41.8824 32.9139 42.0197 33.4263C42.157 33.9386 42.0851 34.4845 41.8199 34.9438ZM15.8399 19.9438C15.5747 20.4032 15.1378 20.7384 14.6255 20.8756C14.1131 21.0129 13.5672 20.9411 13.1079 20.6758L7.91188 17.6758C7.68259 17.5455 7.48135 17.3711 7.31975 17.1626C7.15814 16.9541 7.03937 16.7158 6.97026 16.4612C6.90115 16.2067 6.88308 15.941 6.91707 15.6794C6.95107 15.4179 7.03647 15.1656 7.16835 14.9372C7.30024 14.7088 7.476 14.5087 7.68552 14.3485C7.89504 14.1883 8.13419 14.0711 8.38919 14.0036C8.64419 13.9362 8.91 13.9199 9.17133 13.9557C9.43266 13.9914 9.68434 14.0785 9.91188 14.2118L15.1079 17.2118C15.5672 17.4771 15.9024 17.9139 16.0397 18.4263C16.177 18.9386 16.1051 19.4845 15.8399 19.9438Z" fill="#00D563"/>
</g>
<defs>
<clipPath id="clip0_1211_5034">
<rect width="48" height="48" fill="white" transform="translate(0.5 0.943848)"/>
</clipPath>
</defs>
</svg>
