<svg width="48" height="49" viewBox="0 0 48 49" fill="none" xmlns="http://www.w3.org/2000/svg">
<g clip-path="url(#clip0_1211_5049)">
<path d="M23.9998 1.94385L32.4518 14.3098L46.8258 18.5278L37.6758 30.3878L38.1058 45.3598L23.9998 40.3238L9.89383 45.3598L10.3238 30.3878L1.17383 18.5278L15.5478 14.3098L23.9998 1.94385ZM23.9998 9.03185L18.0438 17.7478L7.91383 20.7178L14.3638 29.0738L14.0578 39.6238L23.9998 36.0758L33.9398 39.6238L33.6358 29.0738L40.0838 20.7178L29.9558 17.7478L23.9998 9.03185V9.03185ZM19.9998 24.9438C19.9998 26.0047 20.4213 27.0221 21.1714 27.7723C21.9215 28.5224 22.939 28.9438 23.9998 28.9438C25.0607 28.9438 26.0781 28.5224 26.8283 27.7723C27.5784 27.0221 27.9998 26.0047 27.9998 24.9438H31.9998C31.9998 27.0656 31.157 29.1004 29.6567 30.6007C28.1564 32.101 26.1216 32.9438 23.9998 32.9438C21.8781 32.9438 19.8433 32.101 18.343 30.6007C16.8427 29.1004 15.9998 27.0656 15.9998 24.9438H19.9998Z" fill="#00D563"/>
</g>
<defs>
<clipPath id="clip0_1211_5049">
<rect width="48" height="48" fill="white" transform="translate(0 0.943848)"/>
</clipPath>
</defs>
</svg>
