<svg width="50" height="51" viewBox="0 0 50 51" fill="none" xmlns="http://www.w3.org/2000/svg">
<g clip-path="url(#clip0_1211_5177)">
<path d="M35.4163 32.7048V47.0215C35.4164 47.2058 35.3675 47.3868 35.2747 47.546C35.182 47.7053 35.0486 47.8371 34.8883 47.9279C34.7279 48.0188 34.5463 48.0655 34.362 48.0633C34.1777 48.061 33.9973 48.0099 33.8393 47.9152L24.9997 42.611L16.1601 47.9152C16.0018 48.01 15.8213 48.0611 15.6368 48.0633C15.4523 48.0654 15.2706 48.0185 15.1102 47.9274C14.9498 47.8363 14.8164 47.7042 14.7238 47.5447C14.6312 47.3851 14.5826 47.2038 14.583 47.0194V32.7069C11.8875 30.5487 9.92883 27.6066 8.97771 24.2872C8.0266 20.9677 8.13 17.4348 9.27361 14.1766C10.4172 10.9184 12.5446 8.09592 15.3617 6.09911C18.1788 4.1023 21.5466 3.02979 24.9997 3.02979C28.4527 3.02979 31.8205 4.1023 34.6376 6.09911C37.4547 8.09592 39.5821 10.9184 40.7257 14.1766C41.8693 17.4348 41.9727 20.9677 41.0216 24.2872C40.0705 27.6066 38.1119 30.5487 35.4163 32.7069V32.7048ZM18.7497 35.1485V41.5027L24.9997 37.7527L31.2497 41.5027V35.1485C29.2639 35.9517 27.1417 36.3634 24.9997 36.361C22.8577 36.3634 20.7354 35.9517 18.7497 35.1485V35.1485ZM24.9997 32.1944C28.3149 32.1944 31.4943 30.8774 33.8385 28.5332C36.1827 26.189 37.4997 23.0096 37.4997 19.6944C37.4997 16.3792 36.1827 13.1997 33.8385 10.8555C31.4943 8.51133 28.3149 7.19436 24.9997 7.19436C21.6845 7.19436 18.505 8.51133 16.1608 10.8555C13.8166 13.1997 12.4997 16.3792 12.4997 19.6944C12.4997 23.0096 13.8166 26.189 16.1608 28.5332C18.505 30.8774 21.6845 32.1944 24.9997 32.1944V32.1944Z" fill="white"/>
</g>
<defs>
<clipPath id="clip0_1211_5177">
<rect width="50" height="50" fill="white" transform="translate(0 0.944336)"/>
</clipPath>
</defs>
</svg>
