<svg width="51" height="51" viewBox="0 0 51 51" fill="none" xmlns="http://www.w3.org/2000/svg">
<g clip-path="url(#clip0_1211_6599)">
<path d="M42.2042 17.6109H44.4167C45.5217 17.6109 46.5815 18.0499 47.3629 18.8313C48.1443 19.6127 48.5833 20.6725 48.5833 21.7775V30.1109C48.5833 31.2159 48.1443 32.2758 47.3629 33.0572C46.5815 33.8386 45.5217 34.2775 44.4167 34.2775H42.2042C41.6963 38.3052 39.736 42.0092 36.6911 44.6942C33.6463 47.3792 29.7263 48.8608 25.6667 48.8609V44.6942C28.9819 44.6942 32.1613 43.3773 34.5055 41.033C36.8497 38.6888 38.1667 35.5094 38.1667 32.1942V19.6942C38.1667 16.379 36.8497 13.1996 34.5055 10.8554C32.1613 8.51117 28.9819 7.19421 25.6667 7.19421C22.3515 7.19421 19.172 8.51117 16.8278 10.8554C14.4836 13.1996 13.1667 16.379 13.1667 19.6942V34.2775H6.91667C5.8116 34.2775 4.75179 33.8386 3.97039 33.0572C3.18899 32.2758 2.75 31.2159 2.75 30.1109V21.7775C2.75 20.6725 3.18899 19.6127 3.97039 18.8313C4.75179 18.0499 5.8116 17.6109 6.91667 17.6109H9.12917C9.63756 13.5836 11.5981 9.88019 14.6429 7.19562C17.6876 4.51104 21.6074 3.02979 25.6667 3.02979C29.7259 3.02979 33.6457 4.51104 36.6905 7.19562C39.7352 9.88019 41.6958 13.5836 42.2042 17.6109V17.6109ZM6.91667 21.7775V30.1109H9V21.7775H6.91667ZM42.3333 21.7775V30.1109H44.4167V21.7775H42.3333ZM16.8333 33.8296L19.0417 30.2963C21.0272 31.5401 23.3237 32.198 25.6667 32.1942C28.0097 32.198 30.3061 31.5401 32.2917 30.2963L34.5 33.8296C31.8526 35.4883 28.7907 36.3657 25.6667 36.3609C22.5426 36.3657 19.4807 35.4883 16.8333 33.8296Z" fill="#14171B"/>
</g>
<defs>
<clipPath id="clip0_1211_6599">
<rect width="50" height="50" fill="white" transform="translate(0.666748 0.944336)"/>
</clipPath>
</defs>
</svg>
