<svg width="48" height="49" viewBox="0 0 48 49" fill="none" xmlns="http://www.w3.org/2000/svg">
<g clip-path="url(#clip0_1211_5041)">
<path d="M14.2099 18.524C14.5568 19.7937 15.3115 20.9141 16.3577 21.7128C17.4039 22.5114 18.6837 22.944 19.9999 22.944H27.9999C30.3559 22.9442 32.6363 23.7761 34.439 25.293C36.2417 26.81 37.4511 28.9146 37.8539 31.236C39.2113 31.6788 40.3664 32.5911 41.1117 33.809C41.857 35.0268 42.1438 36.4705 41.9204 37.8807C41.6971 39.291 40.9784 40.5754 39.8932 41.5034C38.8081 42.4314 37.4277 42.9422 35.9999 42.944C34.603 42.9451 33.2494 42.4587 32.1727 41.5687C31.0959 40.6787 30.3635 39.4409 30.1016 38.0688C29.8397 36.6966 30.0649 35.2761 30.7382 34.0521C31.4115 32.8281 32.4907 31.8774 33.7899 31.364C33.443 30.0943 32.6883 28.9739 31.6421 28.1752C30.5959 27.3766 29.3161 26.9439 27.9999 26.944H19.9999C17.8357 26.9472 15.7294 26.2451 13.9999 24.944V31.284C15.3349 31.7558 16.4601 32.6844 17.1766 33.9056C17.8931 35.1268 18.1549 36.562 17.9155 37.9576C17.6762 39.3531 16.9512 40.6191 15.8686 41.5317C14.7861 42.4444 13.4158 42.945 11.9999 42.945C10.584 42.945 9.21367 42.4444 8.13115 41.5317C7.04863 40.6191 6.32362 39.3531 6.08427 37.9576C5.84492 36.562 6.10664 35.1268 6.82317 33.9056C7.5397 32.6844 8.66491 31.7558 9.99989 31.284V18.604C8.67384 18.1358 7.55429 17.2169 6.8366 16.0075C6.1189 14.7982 5.84864 13.3752 6.07296 11.987C6.29729 10.5987 7.00196 9.33328 8.06401 8.41152C9.12606 7.48976 10.4781 6.97018 11.8841 6.94347C13.2901 6.91675 14.6609 7.38458 15.7572 8.26533C16.8535 9.14608 17.6057 10.3838 17.8826 11.7625C18.1595 13.1413 17.9435 14.5735 17.2723 15.8092C16.601 17.045 15.5172 18.0058 14.2099 18.524V18.524ZM11.9999 14.944C12.5303 14.944 13.039 14.7333 13.4141 14.3582C13.7892 13.9831 13.9999 13.4744 13.9999 12.944C13.9999 12.4136 13.7892 11.9048 13.4141 11.5298C13.039 11.1547 12.5303 10.944 11.9999 10.944C11.4695 10.944 10.9608 11.1547 10.5857 11.5298C10.2106 11.9048 9.99989 12.4136 9.99989 12.944C9.99989 13.4744 10.2106 13.9831 10.5857 14.3582C10.9608 14.7333 11.4695 14.944 11.9999 14.944ZM11.9999 38.944C12.5303 38.944 13.039 38.7333 13.4141 38.3582C13.7892 37.9831 13.9999 37.4744 13.9999 36.944C13.9999 36.4136 13.7892 35.9048 13.4141 35.5298C13.039 35.1547 12.5303 34.944 11.9999 34.944C11.4695 34.944 10.9608 35.1547 10.5857 35.5298C10.2106 35.9048 9.99989 36.4136 9.99989 36.944C9.99989 37.4744 10.2106 37.9831 10.5857 38.3582C10.9608 38.7333 11.4695 38.944 11.9999 38.944ZM35.9999 38.944C36.5303 38.944 37.039 38.7333 37.4141 38.3582C37.7892 37.9831 37.9999 37.4744 37.9999 36.944C37.9999 36.4136 37.7892 35.9048 37.4141 35.5298C37.039 35.1547 36.5303 34.944 35.9999 34.944C35.4695 34.944 34.9607 35.1547 34.5857 35.5298C34.2106 35.9048 33.9999 36.4136 33.9999 36.944C33.9999 37.4744 34.2106 37.9831 34.5857 38.3582C34.9607 38.7333 35.4695 38.944 35.9999 38.944Z" fill="#00D563"/>
</g>
<defs>
<clipPath id="clip0_1211_5041">
<rect width="48" height="48" fill="white" transform="translate(0 0.943848)"/>
</clipPath>
</defs>
</svg>
