<svg width="144" height="37" viewBox="0 0 144 37" fill="none" xmlns="http://www.w3.org/2000/svg">
<path d="M46.066 28.6898L47.8646 24.5125C49.8082 25.9629 52.39 26.7172 54.9427 26.7172C56.8283 26.7172 58.0177 25.992 58.0177 24.8896C57.9887 21.8147 46.7332 24.2224 46.6462 16.5061C46.6172 12.5899 50.0983 9.57294 55.0298 9.57294C57.9597 9.57294 60.8896 10.2982 62.9782 11.9517L61.2957 16.216C59.3811 14.9976 57.0024 14.1273 54.7397 14.1273C53.2022 14.1273 52.1869 14.8525 52.1869 15.7808C52.2159 18.7978 63.5584 17.1442 63.6744 24.5125C63.6744 28.5157 60.2804 31.3296 55.4069 31.3296C51.8388 31.3296 48.5608 30.4883 46.066 28.6898ZM115.078 23.004C114.179 24.5705 112.496 25.6438 110.553 25.6438C107.681 25.6438 105.36 23.3231 105.36 20.4513C105.36 17.5794 107.681 15.2587 110.553 15.2587C112.496 15.2587 114.179 16.332 115.078 17.8985L120.039 15.1426C118.182 11.8356 114.614 9.57294 110.553 9.57294C104.548 9.57294 99.6744 14.4464 99.6744 20.4513C99.6744 26.4561 104.548 31.3296 110.553 31.3296C114.643 31.3296 118.182 29.0959 120.039 25.7599L115.078 23.004ZM66.1692 0.551178H72.3771V30.9235H66.1692V0.551178ZM122.475 0.551178V30.9235H128.683V21.8147L136.052 30.9235H144L134.63 20.1032L143.304 10.0081H135.703L128.683 18.3916V0.551178H122.475ZM90.8267 23.0621C89.9274 24.5415 88.0709 25.6438 85.9822 25.6438C83.1104 25.6438 80.7896 23.3231 80.7896 20.4513C80.7896 17.5794 83.1104 15.2587 85.9822 15.2587C88.0709 15.2587 89.9274 16.419 90.8267 17.9275V23.0621ZM90.8267 10.0081V12.4738C89.8114 10.7623 87.2876 9.57294 84.6478 9.57294C79.1942 9.57294 74.9009 14.3884 74.9009 20.4223C74.9009 26.4561 79.1942 31.3296 84.6478 31.3296C87.2876 31.3296 89.8114 30.1402 90.8267 28.4287V30.8945H97.0346V10.0081H90.8267Z" fill="#C1C1C1"/>
<path d="M7.68739 23.0331C7.68739 25.1507 5.97587 26.8622 3.85822 26.8622C1.74058 26.8622 0.0290527 25.1507 0.0290527 23.0331C0.0290527 20.9154 1.74058 19.2039 3.85822 19.2039H7.68739V23.0331ZM9.60198 23.0331C9.60198 20.9154 11.3135 19.2039 13.4311 19.2039C15.5488 19.2039 17.2603 20.9154 17.2603 23.0331V32.606C17.2603 34.7236 15.5488 36.4352 13.4311 36.4352C11.3135 36.4352 9.60198 34.7236 9.60198 32.606V23.0331Z" fill="#C1C1C1"/>
<path d="M13.4311 7.65834C11.3135 7.65834 9.60193 5.94682 9.60193 3.82917C9.60193 1.71152 11.3135 0 13.4311 0C15.5488 0 17.2603 1.71152 17.2603 3.82917V7.65834H13.4311ZM13.4311 9.60193C15.5488 9.60193 17.2603 11.3135 17.2603 13.4311C17.2603 15.5488 15.5488 17.2603 13.4311 17.2603H3.82917C1.71152 17.2603 0 15.5488 0 13.4311C0 11.3135 1.71152 9.60193 3.82917 9.60193H13.4311Z" fill="#C1C1C1"/>
<path d="M28.7768 13.4311C28.7768 11.3135 30.4883 9.60196 32.606 9.60196C34.7236 9.60196 36.4351 11.3135 36.4351 13.4311C36.4351 15.5488 34.7236 17.2603 32.606 17.2603H28.7768V13.4311ZM26.8622 13.4311C26.8622 15.5488 25.1507 17.2603 23.033 17.2603C20.9154 17.2603 19.2039 15.5488 19.2039 13.4311V3.82919C19.2039 1.71155 20.9154 2.28882e-05 23.033 2.28882e-05C25.1507 2.28882e-05 26.8622 1.71155 26.8622 3.82919V13.4311Z" fill="#C1C1C1"/>
<path d="M23.033 28.7768C25.1507 28.7768 26.8622 30.4883 26.8622 32.606C26.8622 34.7236 25.1507 36.4352 23.033 36.4352C20.9154 36.4352 19.2039 34.7236 19.2039 32.606V28.7768H23.033ZM23.033 26.8622C20.9154 26.8622 19.2039 25.1507 19.2039 23.0331C19.2039 20.9154 20.9154 19.2039 23.033 19.2039H32.635C34.7526 19.2039 36.4641 20.9154 36.4641 23.0331C36.4641 25.1507 34.7526 26.8622 32.635 26.8622H23.033Z" fill="#C1C1C1"/>
</svg>
